<svg width="33" height="32" viewBox="0 0 33 32" fill="none" xmlns="http://www.w3.org/2000/svg">
<rect x="0.667969" width="32" height="32" rx="4" fill="hsla(25, 100%, 59%, 1)"/>
<mask id="mask0_5987_69049" style="mask-type:alpha" maskUnits="userSpaceOnUse" x="4" y="4" width="25" height="24">
<rect x="4.66797" y="4" width="24" height="24" fill="hsla(0, 0%, 85%, 1)"/>
</mask>
<g mask="url(#mask0_5987_69049)">
<path d="M10.691 21.2923C11.541 20.6616 12.467 20.1635 13.469 19.798C14.4708 19.4327 15.5371 19.25 16.668 19.25C17.7988 19.25 18.8651 19.4327 19.867 19.798C20.869 20.1635 21.795 20.6616 22.645 21.2923C23.2666 20.6089 23.7592 19.8179 24.1227 18.9192C24.4862 18.0206 24.668 17.0475 24.668 16C24.668 13.7833 23.8888 11.8958 22.3305 10.3375C20.7721 8.77917 18.8846 8 16.668 8C14.4513 8 12.5638 8.77917 11.0055 10.3375C9.44714 11.8958 8.66797 13.7833 8.66797 16C8.66797 17.0475 8.84972 18.0206 9.21322 18.9192C9.57672 19.8179 10.0693 20.6089 10.691 21.2923ZM16.6682 16.75C15.7552 16.75 14.9853 16.4367 14.3585 15.81C13.7315 15.1832 13.418 14.4133 13.418 13.5003C13.418 12.5873 13.7313 11.8173 14.358 11.1905C14.9848 10.5635 15.7547 10.25 16.6677 10.25C17.5807 10.25 18.3506 10.5633 18.9775 11.19C19.6045 11.8168 19.918 12.5867 19.918 13.4997C19.918 14.4127 19.6046 15.1827 18.978 15.8095C18.3511 16.4365 17.5812 16.75 16.6682 16.75ZM16.668 25.5C15.3488 25.5 14.1113 25.2519 12.9555 24.7558C11.7996 24.2596 10.7942 23.5839 9.93922 22.7288C9.08405 21.8738 8.40839 20.8683 7.91222 19.7125C7.41605 18.5567 7.16797 17.3192 7.16797 16C7.16797 14.6808 7.41605 13.4433 7.91222 12.2875C8.40839 11.1317 9.08405 10.1262 9.93922 9.27125C10.7942 8.41608 11.7996 7.74042 12.9555 7.24425C14.1113 6.74808 15.3488 6.5 16.668 6.5C17.9871 6.5 19.2246 6.74808 20.3805 7.24425C21.5363 7.74042 22.5417 8.41608 23.3967 9.27125C24.2519 10.1262 24.9276 11.1317 25.4237 12.2875C25.9199 13.4433 26.168 14.6808 26.168 16C26.168 17.3192 25.9199 18.5567 25.4237 19.7125C24.9276 20.8683 24.2519 21.8738 23.3967 22.7288C22.5417 23.5839 21.5363 24.2596 20.3805 24.7558C19.2246 25.2519 17.9871 25.5 16.668 25.5ZM16.668 24C17.5705 24 18.4406 23.8548 19.2785 23.5645C20.1163 23.274 20.8602 22.8679 21.5102 22.3462C20.8602 21.8436 20.126 21.4519 19.3075 21.1712C18.4888 20.8904 17.609 20.75 16.668 20.75C15.727 20.75 14.8456 20.8888 14.0237 21.1663C13.2019 21.4439 12.4692 21.8372 11.8257 22.3462C12.4757 22.8679 13.2196 23.274 14.0575 23.5645C14.8953 23.8548 15.7655 24 16.668 24ZM16.668 15.25C17.1655 15.25 17.5815 15.0827 17.916 14.748C18.2506 14.4135 18.418 13.9975 18.418 13.5C18.418 13.0025 18.2506 12.5865 17.916 12.252C17.5815 11.9173 17.1655 11.75 16.668 11.75C16.1705 11.75 15.7545 11.9173 15.42 12.252C15.0853 12.5865 14.918 13.0025 14.918 13.5C14.918 13.9975 15.0853 14.4135 15.42 14.748C15.7545 15.0827 16.1705 15.25 16.668 15.25Z" fill="black"/>
</g>
</svg>
