<svg width="33" height="32" viewBox="0 0 33 32" fill="none" xmlns="http://www.w3.org/2000/svg">
<rect x="0.335938" width="32" height="32" rx="4" fill="hsla(25, 100%, 59%, 1)"/>
<mask id="mask0_5987_69059" style="mask-type:alpha" maskUnits="userSpaceOnUse" x="4" y="4" width="25" height="24">
<rect x="4.33594" y="4" width="24" height="24" fill="#D9D9D9"/>
</mask>
<g mask="url(#mask0_5987_69059)">
<path d="M16.3153 17.5C15.9062 17.5 15.554 17.3523 15.2585 17.0568C14.963 16.7613 14.8153 16.409 14.8153 16C14.8153 15.591 14.963 15.2387 15.2585 14.9432C15.554 14.6477 15.9062 14.5 16.3153 14.5C16.7243 14.5 17.0765 14.6477 17.372 14.9432C17.6675 15.2387 17.8152 15.591 17.8152 16C17.8152 16.409 17.6675 16.7613 17.372 17.0568C17.0765 17.3523 16.7243 17.5 16.3153 17.5ZM16.3153 24.5C14.1396 24.5 12.2498 23.7856 10.646 22.3568C9.04217 20.9279 8.1185 19.1423 7.875 17H9.40575C9.65825 18.727 10.4367 20.1587 11.7412 21.2952C13.0457 22.4318 14.5704 23 16.3153 23C18.2653 23 19.9194 22.3208 21.2778 20.9625C22.6361 19.6042 23.3152 17.95 23.3152 16C23.3152 14.05 22.6361 12.3958 21.2778 11.0375C19.9194 9.67917 18.2653 9 16.3153 9C15.2229 9 14.1993 9.24267 13.2443 9.728C12.2891 10.2132 11.4666 10.8807 10.7768 11.7307H13.3923V13.2307H8.31525V8.15375H9.81525V10.523C10.6267 9.56533 11.5986 8.82208 12.7308 8.29325C13.8628 7.76442 15.0576 7.5 16.3153 7.5C17.4953 7.5 18.6005 7.72308 19.631 8.16925C20.6615 8.61542 21.5601 9.22183 22.3268 9.9885C23.0934 10.7552 23.6998 11.6537 24.146 12.684C24.5922 13.7145 24.8153 14.8197 24.8153 15.9995C24.8153 17.1793 24.5922 18.2846 24.146 19.3152C23.6998 20.3461 23.0934 21.2448 22.3268 22.0115C21.5601 22.7782 20.6615 23.3846 19.631 23.8307C18.6005 24.2769 17.4953 24.5 16.3153 24.5Z" fill="black"/>
</g>
</svg>
