<svg width="32" height="32" viewBox="0 0 32 32" fill="none" xmlns="http://www.w3.org/2000/svg">
<rect width="32" height="32" rx="4" fill="hsla(25, 100%, 59%, 1)"/>
<mask id="mask0_5987_69054" style="mask-type:alpha" maskUnits="userSpaceOnUse" x="4" y="4" width="24" height="24">
<rect x="4" y="4" width="24" height="24" fill="#D9D9D9"/>
</mask>
<g mask="url(#mask0_5987_69054)">
<path d="M5.5 22.5266V18.2766H7V21.0266H25V18.2766H26.5V22.5266H5.5ZM13.7037 18.9921V18.0651H13.6193C13.3963 18.4369 13.103 18.7218 12.7395 18.9198C12.376 19.118 11.9578 19.2171 11.4848 19.2171C10.7193 19.2171 10.1144 19.0141 9.67025 18.6083C9.22592 18.2025 9.00375 17.6521 9.00375 16.9573C9.00375 16.2573 9.26342 15.6881 9.78275 15.2496C10.3019 14.8112 10.9737 14.5921 11.798 14.5921C12.1622 14.5921 12.5083 14.6244 12.8365 14.6891C13.1647 14.7539 13.4487 14.853 13.6885 14.9863V14.5401C13.6885 13.9939 13.5328 13.5715 13.2213 13.2728C12.9096 12.974 12.4679 12.8246 11.8963 12.8246C11.5463 12.8246 11.2187 12.8916 10.9135 13.0256C10.6083 13.1596 10.3282 13.3586 10.073 13.6228L9.22875 12.9478C9.56475 12.5555 9.952 12.2619 10.3905 12.0671C10.8288 11.8721 11.3327 11.7746 11.902 11.7746C12.884 11.7746 13.626 12.0172 14.128 12.5026C14.6298 12.9877 14.8808 13.7002 14.8808 14.6401V18.9921H13.7037ZM12.0155 15.5651C11.45 15.5651 11.0096 15.6868 10.6942 15.9303C10.3789 16.174 10.2213 16.5131 10.2213 16.9478C10.2213 17.326 10.351 17.6288 10.6105 17.8563C10.8702 18.084 11.2096 18.1978 11.6287 18.1978C12.2134 18.1978 12.7029 17.9846 13.0973 17.5583C13.4914 17.132 13.6885 16.6041 13.6885 15.9746C13.4615 15.8412 13.1948 15.7396 12.8885 15.6698C12.582 15.6 12.291 15.5651 12.0155 15.5651ZM16.6885 19.0016V8.97656H17.9115V12.0613L17.8365 13.0613H17.902C18.0288 12.8625 18.2721 12.6211 18.6318 12.3371C18.9914 12.0532 19.4918 11.9113 20.1328 11.9113C21.1033 11.9113 21.8743 12.2657 22.446 12.9746C23.0178 13.6836 23.3038 14.5573 23.3038 15.5958C23.3038 16.6215 23.022 17.483 22.4585 18.1803C21.8952 18.8778 21.1167 19.2266 20.123 19.2266C19.5167 19.2266 19.0295 19.0958 18.6615 18.8343C18.2935 18.5728 18.0403 18.3202 17.902 18.0766H17.8365V19.0016H16.6885ZM19.975 13.0516C19.3212 13.0516 18.8012 13.3038 18.4152 13.8083C18.0294 14.3128 17.8365 14.9035 17.8365 15.5803C17.8365 16.2676 18.0294 16.8593 18.4152 17.3553C18.8012 17.8515 19.3212 18.0996 19.975 18.0996C20.6288 18.0996 21.1401 17.8563 21.5087 17.3698C21.8772 16.8833 22.0615 16.2868 22.0615 15.5803C22.0615 14.874 21.8772 14.2759 21.5087 13.7861C21.1401 13.2964 20.6288 13.0516 19.975 13.0516Z" fill="black"/>
</g>
</svg>
