<?xml version="1.0" encoding="UTF-8"?>
<svg width="56px" height="56px" viewBox="0 0 56 56" version="1.1" xmlns="http://www.w3.org/2000/svg" xmlns:xlink="http://www.w3.org/1999/xlink">
    <title>dapp</title>
    <g id="Page-1" stroke="none" stroke-width="1" fill="none" fill-rule="evenodd">
        <g id="dapp">
            <rect id="Rectangle" fill="#317AFF" fill-rule="nonzero" x="0" y="0" width="56" height="56" rx="6"></rect>
            <circle id="Oval" fill="#F9F9FA" fill-rule="nonzero" cx="28" cy="37" r="2"></circle>
            <path d="M16,17.4 L40,17.4 C40.3314,17.4 40.6,17.6686 40.6,18 L40.6,36 C40.6,36.3314 40.3314,36.6 40,36.6 L38.9929,36.6 C38.9976,36.7327 39,36.8661 39,37 C39,37.683 38.9378,38.3514 38.8186,39 L40,39 C41.6569,39 43,37.6569 43,36 L43,18 C43,16.3431 41.6569,15 40,15 L16,15 C14.3431,15 13,16.3431 13,18 L13,36 C13,37.6569 14.3431,39 16,39 L17.1814,39 C17.0622,38.3514 17,37.683 17,37 C17,36.8661 17.0024,36.7327 17.0071,36.6 L16,36.6 C15.6686,36.6 15.4,36.3314 15.4,36 L15.4,18 C15.4,17.6686 15.6686,17.4 16,17.4 Z" id="Path" fill="#F9F9FA"></path>
            <path d="M33.2323,39 C33.4699,38.3789 33.6,37.7046 33.6,37 C33.6,33.9072 31.0928,31.4 28,31.4 C24.9072,31.4 22.4,33.9072 22.4,37 C22.4,37.7046 22.5301,38.3789 22.7677,39 L20.252,39 C20.0875,38.3608 20,37.6906 20,37 C20,32.5817 23.5817,29 28,29 C32.4183,29 36,32.5817 36,37 C36,37.6906 35.9125,38.3608 35.748,39 L33.2323,39 Z" id="Path" fill="#F9F9FA"></path>
        </g>
    </g>
</svg>