<svg width="1440" height="814" viewBox="0 0 1440 814" fill="none" xmlns="http://www.w3.org/2000/svg">
<g clip-path="url(#clip0_4096_35146)">
<path d="M292.764 -229.529L87.3184 -191.452L125.38 13.9128L330.826 -24.1644L292.764 -229.529Z" fill="#17191C"/>
</g>
<g clip-path="url(#clip1_4096_35146)">
<path d="M113.971 95.6841L111.185 80.6514L111.183 80.6412L104.456 44.343L-100.99 82.4202L-91.4747 133.761L-69.6576 251.476L-69.6557 251.486L-62.9282 287.785L142.518 249.707L133.002 198.366L113.971 95.6841ZM-40.103 124.24L26.2972 111.934L-27.8116 190.616L-40.1132 124.242L-40.103 124.24ZM69.3391 141.512L81.6407 207.886L15.2304 220.194L69.3288 141.514L69.3391 141.512Z" fill="#17191C"/>
</g>
<g clip-path="url(#clip2_4096_35146)">
<path d="M342.313 37.8149L373.646 206.871L204.514 238.228L246.36 177.368L312.771 165.059L300.467 98.6752L342.313 37.8149Z" fill="#17191C"/>
<path d="M299.27 8.23648L257.424 69.0969L191.014 81.4053L203.315 147.779L161.469 208.64L130.137 39.5835L299.27 8.23648Z" fill="#17191C"/>
</g>
<g clip-path="url(#clip3_4096_35146)">
<path d="M-41.0876 -167.653L-124.78 -45.9325L-3.02553 37.7111L80.6664 -84.0097L-41.0876 -167.653ZM-70.6857 -57.1053L-31.2333 -114.484L26.1615 -75.0549L-13.2909 -17.6757L-70.6857 -57.1053Z" fill="#17191C"/>
</g>
<g clip-path="url(#clip4_4096_35146)">
<path d="M985.94 22.5785L973.254 -45.8695L904.779 -33.1784L892.091 -101.637L823.605 -88.9436L861.668 116.421L1067.11 78.3437L1054.43 9.88546L985.94 22.5785Z" fill="#17191C"/>
</g>
<g clip-path="url(#clip5_4096_35146)">
<path d="M566.799 -41.3472L361.354 -3.27002L370.869 48.0711L576.315 9.99394L566.799 -41.3472Z" fill="#17191C"/>
<path d="M595.346 112.676L389.9 150.753L399.416 202.095L604.862 164.017L595.346 112.676Z" fill="#17191C"/>
<path d="M581.072 35.6645L529.711 45.1838L539.226 96.5249L590.588 87.0057L581.072 35.6645Z" fill="#17191C"/>
<path d="M426.988 64.2224L375.627 73.7417L385.142 125.083L436.504 115.564L426.988 64.2224Z" fill="#17191C"/>
<path d="M504.031 49.9434L452.67 59.4626L462.185 110.804L513.547 101.284L504.031 49.9434Z" fill="#17191C"/>
</g>
<g clip-path="url(#clip6_4096_35146)">
<path d="M1269.7 -118.517L1266.91 -133.549L1266.91 -133.56L1260.18 -169.858L1054.73 -131.781L1064.25 -80.4394L1086.07 37.2755L1086.07 37.2858L1092.8 73.5839L1298.24 35.5068L1288.73 -15.8343L1269.7 -118.517ZM1115.62 -89.9606L1182.02 -102.267L1127.91 -23.5849L1115.61 -89.9587L1115.62 -89.9606ZM1225.06 -72.6888L1237.37 -6.31505L1170.95 5.99339L1225.05 -72.6869L1225.06 -72.6888Z" fill="#17191C"/>
</g>
<g clip-path="url(#clip7_4096_35146)">
<path d="M1498.04 -176.386L1529.37 -7.32984L1360.24 24.0274L1402.08 -36.833L1468.5 -49.1414L1456.19 -115.525L1498.04 -176.386Z" fill="#17191C"/>
</g>
<g clip-path="url(#clip8_4096_35146)">
<path d="M769.751 -8.87562L768.221 33.5266L747.522 -13.502L703.673 -22.615L701.813 28.5946L681.425 -27.2866L637.621 -36.4177L630.542 159.258L675.001 151.018L677.18 91.0024L697.559 146.837L742.018 138.597L743.878 87.387L764.577 134.416L809.036 126.176L813.58 0.280124L769.768 -8.88849L769.751 -8.87562Z" fill="#17191C"/>
</g>
<g clip-path="url(#clip9_4096_35146)">
<path d="M464.063 694.712L258.617 732.789L296.679 938.153L502.125 900.076L464.063 694.712Z" fill="#17191C"/>
</g>
<g clip-path="url(#clip10_4096_35146)">
<path d="M8.53663 816.694L-34.5053 787.116L-88.6121 865.808L-167.326 811.733L-196.909 854.771L-118.197 908.836L-172.304 987.529L-129.262 1017.11L-75.1553 938.415L3.55863 992.49L33.1418 949.452L-45.5618 895.374L8.53663 816.694Z" fill="#17191C"/>
</g>
<g clip-path="url(#clip11_4096_35146)">
<path d="M352.765 476.368L284.279 489.061L296.967 557.519L365.453 544.826L352.765 476.368Z" fill="#17191C"/>
<path d="M378.14 613.274L309.654 625.967L322.342 694.425L390.828 681.732L378.14 613.274Z" fill="#17191C"/>
<path d="M433.929 532.135L365.443 544.828L378.131 613.286L446.617 600.593L433.929 532.135Z" fill="#17191C"/>
<path d="M296.968 557.519L228.482 570.212L241.17 638.67L309.656 625.977L296.968 557.519Z" fill="#17191C"/>
</g>
<g clip-path="url(#clip12_4096_35146)">
<path d="M161.017 607.495C186.547 602.763 203.408 578.24 198.679 552.721C193.949 527.201 169.419 510.349 143.889 515.081C118.36 519.813 101.498 544.336 106.228 569.855C110.958 595.375 135.488 612.227 161.017 607.495Z" fill="#17191C"/>
<path d="M48.0232 628.437C73.5527 623.706 90.4143 599.183 85.6845 573.663C80.9548 548.144 56.4248 531.292 30.8953 536.023C5.36571 540.755 -11.4959 565.278 -6.76612 590.798C-2.03637 616.317 22.4936 633.169 48.0232 628.437Z" fill="#17191C"/>
<path d="M181.951 720.446C207.48 715.714 224.342 691.191 219.612 665.671C214.883 640.152 190.353 623.3 164.823 628.032C139.293 632.763 122.432 657.286 127.162 682.806C131.891 708.325 156.421 725.177 181.951 720.446Z" fill="#17191C"/>
<path d="M68.9568 741.388C94.4863 736.656 111.348 712.133 106.618 686.614C101.888 661.094 77.3584 644.242 51.8288 648.974C26.2993 653.706 9.43773 678.229 14.1675 703.748C18.8972 729.268 43.4272 746.12 68.9568 741.388Z" fill="#17191C"/>
</g>
<g clip-path="url(#clip13_4096_35146)">
<path d="M154.025 311.787L154.023 311.777L147.296 275.479L95.9341 284.998L-58.1504 313.556L-48.6349 364.897L69.137 343.069L-26.8158 482.622L16.2261 512.2L112.179 372.647L133.996 490.362L185.358 480.843L156.811 326.82L154.025 311.787Z" fill="#17191C"/>
</g>
<g clip-path="url(#clip14_4096_35146)">
<path d="M204.309 439.785L204.311 439.796L211.039 476.094L262.4 466.574L416.484 438.017L406.969 386.675L289.197 408.503L385.15 268.95L342.108 239.372L246.153 378.915L224.336 261.2L172.975 270.719L201.523 424.753L204.307 439.775L204.309 439.785Z" fill="#17191C"/>
</g>
<g clip-path="url(#clip15_4096_35146)">
<path d="M130.211 756.587L46.5193 878.308L168.273 961.952L251.965 840.231L130.211 756.587ZM100.613 867.135L140.066 809.756L197.46 849.186L158.008 906.565L100.613 867.135Z" fill="#17191C"/>
</g>
<g clip-path="url(#clip16_4096_35146)">
<path d="M1619.79 480.511L1414.34 518.588L1452.4 723.953L1657.85 685.875L1619.79 480.511Z" fill="#17191C"/>
</g>
<g clip-path="url(#clip17_4096_35146)">
<path d="M840.764 146.951L635.318 185.029L644.834 236.37L850.28 198.293L840.764 146.951Z" fill="#17191C"/>
<path d="M855.038 223.963L649.592 262.04L659.107 313.381L864.553 275.304L855.038 223.963Z" fill="#17191C"/>
<path d="M869.311 300.975L663.865 339.052L673.381 390.393L878.827 352.316L869.311 300.975Z" fill="#17191C"/>
</g>
<g clip-path="url(#clip18_4096_35146)">
<path d="M549.735 439.862C493.001 450.377 455.532 504.871 466.043 561.583C476.554 618.294 531.063 655.741 587.797 645.226C644.531 634.711 682 580.217 671.489 523.505C660.978 466.794 606.469 429.347 549.735 439.862Z" fill="#17191C"/>
</g>
<g clip-path="url(#clip19_4096_35146)">
<path d="M1157.24 946.819L1144.55 878.371L1076.08 891.062L1063.39 822.604L994.902 835.297L1032.96 1040.66L1238.41 1002.58L1225.72 934.126L1157.24 946.819Z" fill="#17191C"/>
</g>
<g clip-path="url(#clip20_4096_35146)">
<path d="M1164.26 602.493L1121.22 572.915L1067.11 651.607L988.397 597.532L958.813 640.57L1037.53 694.636L983.419 773.328L1026.46 802.907L1080.57 724.214L1159.28 778.29L1188.86 735.251L1110.16 681.174L1164.26 602.493Z" fill="#17191C"/>
</g>
<g clip-path="url(#clip21_4096_35146)">
<path d="M1440.99 805.724L1438.21 790.691L1438.2 790.681L1431.48 754.383L1226.03 792.46L1235.55 843.801L1257.36 961.516L1257.37 961.526L1264.09 997.824L1469.54 959.747L1460.02 908.406L1440.99 805.724ZM1286.92 834.28L1353.32 821.973L1299.21 900.656L1286.91 834.282L1286.92 834.28ZM1396.36 851.552L1408.66 917.925L1342.25 930.234L1396.35 851.554L1396.36 851.552Z" fill="#17191C"/>
</g>
<g clip-path="url(#clip22_4096_35146)">
<path d="M525.946 311.509L423.223 330.548L442.254 433.23L544.977 414.191L525.946 311.509Z" fill="#17191C"/>
<path d="M404.191 227.865L647.699 395.153L609.637 189.788L404.191 227.865Z" fill="#17191C"/>
</g>
<g clip-path="url(#clip23_4096_35146)">
<path d="M1452.69 343.318L1384.21 356.011L1396.89 424.47L1465.38 411.777L1452.69 343.318Z" fill="#17191C"/>
</g>
<g clip-path="url(#clip24_4096_35146)">
<path d="M1071.89 104.115L1020.53 113.634L1030.04 164.975L1081.41 155.456L1071.89 104.115Z" fill="#17191C"/>
<path d="M1071.89 104.115L1020.53 113.634L1030.04 164.975L1081.41 155.456L1071.89 104.115Z" fill="#17191C"/>
<path d="M917.807 132.673L866.445 142.192L875.961 193.533L927.322 184.014L917.807 132.673Z" fill="#17191C"/>
<path d="M994.85 118.394L943.488 127.913L953.004 179.254L1004.37 169.735L994.85 118.394Z" fill="#17191C"/>
<path d="M1086.17 181.126L1034.8 190.646L1044.32 241.987L1095.68 232.468L1086.17 181.126Z" fill="#17191C"/>
<path d="M932.08 209.684L880.719 219.204L890.234 270.545L941.596 261.025L932.08 209.684Z" fill="#17191C"/>
<path d="M1009.12 195.405L957.762 204.925L967.277 256.266L1018.64 246.746L1009.12 195.405Z" fill="#17191C"/>
<path d="M1100.44 258.138L1049.08 267.657L1058.59 318.999L1109.95 309.479L1100.44 258.138Z" fill="#17191C"/>
<path d="M946.354 286.696L894.992 296.215L904.508 347.556L955.869 338.037L946.354 286.696Z" fill="#17191C"/>
<path d="M1023.39 272.417L972.033 281.936L981.549 333.277L1032.91 323.758L1023.39 272.417Z" fill="#17191C"/>
</g>
<g clip-path="url(#clip25_4096_35146)">
<path d="M1316.74 393.294C1342.27 388.563 1359.13 364.039 1354.4 338.52C1349.67 313.001 1325.14 296.149 1299.61 300.88C1274.08 305.612 1257.22 330.135 1261.95 355.655C1266.68 381.174 1291.21 398.026 1316.74 393.294Z" fill="#17191C"/>
<path d="M1203.75 414.237C1229.28 409.505 1246.14 384.982 1241.41 359.462C1236.68 333.943 1212.15 317.091 1186.62 321.823C1161.09 326.554 1144.23 351.078 1148.96 376.597C1153.69 402.117 1178.22 418.968 1203.75 414.237Z" fill="#17191C"/>
<path d="M1337.67 506.245C1363.2 501.513 1380.06 476.99 1375.33 451.47C1370.61 425.951 1346.08 409.099 1320.55 413.831C1295.02 418.562 1278.15 443.086 1282.88 468.605C1287.61 494.125 1312.14 510.976 1337.67 506.245Z" fill="#17191C"/>
<path d="M1224.68 527.187C1250.21 522.456 1267.07 497.932 1262.34 472.413C1257.61 446.893 1233.08 430.042 1207.55 434.773C1182.02 439.505 1165.16 464.028 1169.89 489.548C1174.62 515.067 1199.15 531.919 1224.68 527.187Z" fill="#17191C"/>
</g>
<g clip-path="url(#clip26_4096_35146)">
<path d="M863.635 700.312L812.273 709.831L821.789 761.172L873.15 751.653L863.635 700.312Z" fill="#17191C"/>
<path d="M875.041 618.541L720.957 647.099L759.019 852.463L964.465 814.386L926.403 609.021L875.041 618.541ZM903.588 772.564L800.865 791.603L781.834 688.92L884.557 669.882L903.588 772.564Z" fill="#17191C"/>
</g>
<g clip-path="url(#clip27_4096_35146)">
<path d="M780.862 397.025C724.128 407.54 686.659 462.035 697.17 518.746C707.681 575.457 762.19 612.905 818.924 602.39C875.658 591.875 913.126 537.38 902.616 480.669C892.105 423.957 837.596 386.51 780.862 397.025ZM809.408 551.048C781.046 556.305 753.786 537.577 748.531 509.227C743.277 480.876 762.015 453.623 790.377 448.366C818.739 443.11 846 461.838 851.254 490.188C856.509 518.539 837.77 545.792 809.408 551.048Z" fill="#17191C"/>
</g>
<g clip-path="url(#clip28_4096_35146)">
<path d="M1309.75 97.5863L1309.75 97.576L1303.02 61.2778L1251.66 70.7971L1097.57 99.355L1107.09 150.696L1224.86 128.868L1128.91 268.421L1171.95 298L1267.9 158.447L1289.72 276.162L1341.08 266.642L1312.53 112.619L1309.75 97.5863Z" fill="#17191C"/>
</g>
<g clip-path="url(#clip29_4096_35146)">
<path d="M1360.03 225.585L1360.03 225.595L1366.76 261.893L1418.12 252.374L1572.21 223.816L1562.69 172.475L1444.92 194.302L1540.87 54.7496L1497.83 25.1713L1401.88 164.714L1380.06 46.999L1328.7 56.5183L1357.25 210.552L1360.03 225.574L1360.03 225.585Z" fill="#17191C"/>
</g>
<g clip-path="url(#clip30_4096_35146)">
<path d="M1063.35 344.669L960.625 363.708L970.141 415.049L1072.86 396.01L1091.89 498.692L1143.26 489.173L1124.22 386.491L1114.71 335.15L1063.35 344.669Z" fill="#17191C"/>
<path d="M909.264 373.227L970.141 415.049L960.625 363.708L909.264 373.227Z" fill="#17191C"/>
<path d="M1091.89 498.692L1152.77 540.514L1143.26 489.173L1091.89 498.692Z" fill="#17191C"/>
<path d="M1031.02 456.87L928.295 475.909L947.326 578.591L1050.05 559.553L1031.02 456.87Z" fill="#17191C"/>
</g>
<g clip-path="url(#clip31_4096_35146)">
<path d="M714.308 754.542L592.555 670.899L508.864 792.619L630.616 876.262L714.308 754.542Z" fill="#17191C"/>
</g>
<g clip-path="url(#clip32_4096_35146)">
<path d="M1285.93 542.386L1202.24 664.107L1324 747.751L1407.69 626.03L1285.93 542.386ZM1256.34 652.935L1295.79 595.555L1353.18 634.985L1313.73 692.364L1256.34 652.935Z" fill="#17191C"/>
</g>
<defs>
<clipPath id="clip0_4096_35146">
<rect width="208.945" height="208.862" fill="white" transform="translate(87.3184 -191.452) rotate(-10.5)"/>
</clipPath>
<clipPath id="clip1_4096_35146">
<rect width="208.945" height="208.862" fill="white" transform="translate(-100.99 82.4202) rotate(-10.5)"/>
</clipPath>
<clipPath id="clip2_4096_35146">
<rect width="208.945" height="208.862" fill="white" transform="translate(130.137 39.5835) rotate(-10.5)"/>
</clipPath>
<clipPath id="clip3_4096_35146">
<rect width="208.945" height="208.862" fill="white" transform="translate(-143.811 -148.615) rotate(-10.5)"/>
</clipPath>
<clipPath id="clip4_4096_35146">
<rect width="208.945" height="208.862" fill="white" transform="translate(823.605 -88.9436) rotate(-10.5)"/>
</clipPath>
<clipPath id="clip5_4096_35146">
<rect width="208.945" height="208.862" fill="white" transform="translate(361.354 -3.27002) rotate(-10.5)"/>
</clipPath>
<clipPath id="clip6_4096_35146">
<rect width="208.945" height="208.862" fill="white" transform="translate(1054.73 -131.781) rotate(-10.5)"/>
</clipPath>
<clipPath id="clip7_4096_35146">
<rect width="208.945" height="208.862" fill="white" transform="translate(1285.86 -174.617) rotate(-10.5)"/>
</clipPath>
<clipPath id="clip8_4096_35146">
<rect width="208.945" height="208.862" fill="white" transform="translate(592.48 -46.1069) rotate(-10.5)"/>
</clipPath>
<clipPath id="clip9_4096_35146">
<rect width="208.945" height="208.862" fill="white" transform="translate(258.617 732.789) rotate(-10.5)"/>
</clipPath>
<clipPath id="clip10_4096_35146">
<rect width="208.945" height="208.862" fill="white" transform="translate(-203.639 818.463) rotate(-10.5)"/>
</clipPath>
<clipPath id="clip11_4096_35146">
<rect width="208.945" height="208.862" fill="white" transform="translate(215.795 501.754) rotate(-10.5)"/>
</clipPath>
<clipPath id="clip12_4096_35146">
<rect width="208.945" height="208.862" fill="white" transform="translate(-15.3301 544.591) rotate(-10.5)"/>
</clipPath>
<clipPath id="clip13_4096_35146">
<rect width="208.945" height="208.862" fill="white" transform="translate(-58.1504 313.556) rotate(-10.5)"/>
</clipPath>
<clipPath id="clip14_4096_35146">
<rect width="208.945" height="208.862" fill="white" transform="translate(172.975 270.719) rotate(-10.5)"/>
</clipPath>
<clipPath id="clip15_4096_35146">
<rect width="208.945" height="208.862" fill="white" transform="translate(27.4883 775.626) rotate(-10.5)"/>
</clipPath>
<clipPath id="clip16_4096_35146">
<rect width="208.945" height="208.862" fill="white" transform="translate(1414.34 518.588) rotate(-10.5)"/>
</clipPath>
<clipPath id="clip17_4096_35146">
<rect width="208.945" height="208.862" fill="white" transform="translate(635.318 185.029) rotate(-10.5)"/>
</clipPath>
<clipPath id="clip18_4096_35146">
<rect width="208.945" height="208.862" fill="white" transform="translate(447.012 458.9) rotate(-10.5)"/>
</clipPath>
<clipPath id="clip19_4096_35146">
<rect width="208.945" height="208.862" fill="white" transform="translate(994.902 835.297) rotate(-10.5)"/>
</clipPath>
<clipPath id="clip20_4096_35146">
<rect width="208.945" height="208.862" fill="white" transform="translate(952.084 604.262) rotate(-10.5)"/>
</clipPath>
<clipPath id="clip21_4096_35146">
<rect width="208.945" height="208.862" fill="white" transform="translate(1226.03 792.46) rotate(-10.5)"/>
</clipPath>
<clipPath id="clip22_4096_35146">
<rect width="208.945" height="208.862" fill="white" transform="translate(404.191 227.865) rotate(-10.5)"/>
</clipPath>
<clipPath id="clip23_4096_35146">
<rect width="208.945" height="208.862" fill="white" transform="translate(1371.52 287.553) rotate(-10.5)"/>
</clipPath>
<clipPath id="clip24_4096_35146">
<rect width="208.945" height="208.862" fill="white" transform="translate(866.445 142.192) rotate(-10.5)"/>
</clipPath>
<clipPath id="clip25_4096_35146">
<rect width="208.945" height="208.862" fill="white" transform="translate(1140.39 330.39) rotate(-10.5)"/>
</clipPath>
<clipPath id="clip26_4096_35146">
<rect width="208.945" height="208.862" fill="white" transform="translate(720.957 647.099) rotate(-10.5)"/>
</clipPath>
<clipPath id="clip27_4096_35146">
<rect width="208.945" height="208.862" fill="white" transform="translate(678.139 416.064) rotate(-10.5)"/>
</clipPath>
<clipPath id="clip28_4096_35146">
<rect width="208.945" height="208.862" fill="white" transform="translate(1097.57 99.355) rotate(-10.5)"/>
</clipPath>
<clipPath id="clip29_4096_35146">
<rect width="208.945" height="208.862" fill="white" transform="translate(1328.7 56.5183) rotate(-10.5)"/>
</clipPath>
<clipPath id="clip30_4096_35146">
<rect width="208.945" height="208.862" fill="white" transform="translate(909.264 373.227) rotate(-10.5)"/>
</clipPath>
<clipPath id="clip31_4096_35146">
<rect width="208.945" height="208.862" fill="white" transform="translate(489.832 689.936) rotate(-10.5)"/>
</clipPath>
<clipPath id="clip32_4096_35146">
<rect width="208.945" height="208.862" fill="white" transform="translate(1183.21 561.425) rotate(-10.5)"/>
</clipPath>
</defs>
</svg>
